<?xml version="1.0" encoding="utf-8"?>
<!-- Generator: Adobe Illustrator 22.0.1, SVG Export Plug-In . SVG Version: 6.00 Build 0)  -->
<svg version="1.1" id="Layer_1" xmlns="http://www.w3.org/2000/svg" xmlns:xlink="http://www.w3.org/1999/xlink" x="0px" y="0px"
	 viewBox="0 0 142 142" style="enable-background:new 0 0 142 142;" xml:space="preserve">
<style type="text/css">
	.st0{fill:#FFFFFF;}
	.st1{fill:#84BBD7;}
	.st2{fill:#BFD8E8;}
</style>
<g>
	<path d="M108.6,36.7c-0.1-0.1-0.3-0.3-0.3-0.3c-0.3-0.3-0.6-0.8-1-1l-0.1-0.1c-3.3-3.3-7.8-5.5-13.1-6.1c-0.1-2.1-0.6-4.2-1.6-5.8
		c-2.2-4.5-6.9-7.2-12.4-7.2c-3.1,0-6.1,0.8-8.9,2.2c-2.6-2.6-5.6-4.8-9-6.1c-3.2-1.3-6.5-1.9-9.7-1.9c-6.9,0-12.8,3.1-15.8,8.2
		l-0.1,0.1c-0.1,0.3-0.3,0.5-0.3,0.8c-0.3,0.6-0.6,1.3-0.8,1.9c-0.3,0.8-0.5,1.6-0.6,2.4c-12.9,1.8-21.7,8.8-22.4,17.7
		c-0.3,6.3,3.5,12.6,10.8,16.9c-1.3,1.9-1.8,3.9-1.8,6.1c0,1.8,0.3,3.5,1,5.1c2.8,7.1,12.1,12.3,23.4,12.7l0,0l0,0c0.5,0,1,0,1.5,0
		c0.3,0,0.5,0,0.8,0c0.5,0,1,0,1.5,0c0.5,0,1,0,1.3-0.1c0.5,0,1-0.1,1.5-0.1c0.5-0.1,1-0.1,1.3-0.3c0.5-0.1,0.8-0.1,1.3-0.3
		c0.5-0.1,1-0.3,1.5-0.3c0.3-0.1,0.6-0.3,1-0.3c0.6-0.1,1.1-0.3,1.7-0.5c0.1-0.1,0.3-0.1,0.5-0.3c2.2-0.8,4.3-1.9,6-3.3
		c1.8,1.1,3.8,2.1,5.8,2.9c4.8,1.9,9.8,3.1,14.3,3.1l0,0c7.7,0,13.4-3.1,15.3-8.2c1.1-3.1,0.8-6.5-1-10c0.8-0.3,1.6-0.6,2.3-1.1
		c0.3-0.1,0.5-0.3,0.8-0.3c0.1-0.1,0.3-0.3,0.5-0.3c4.5-2.7,7.7-6.8,8.8-11.5v-0.1c0.1-0.5,0.3-1,0.3-1.6c0-0.1,0-0.3,0-0.3
		c0-0.6,0.1-1.1,0.1-1.7l0,0l0,0l0,0c0-0.6,0-1.3-0.1-1.7c0-0.3-0.1-0.5-0.1-0.8c0-0.3-0.1-0.8-0.3-1.1c0-0.3-0.1-0.5-0.3-0.8
		c-0.1-0.3-0.1-0.6-0.3-0.8c-0.1-0.3-0.3-0.6-0.3-0.8c-0.1-0.3-0.3-0.5-0.3-0.8c-0.1-0.3-0.3-0.6-0.5-0.8c-0.1-0.3-0.3-0.5-0.3-0.6
		c-0.1-0.3-0.3-0.6-0.6-0.8c-0.1-0.1-0.3-0.3-0.3-0.5C109.1,37.3,108.9,36.9,108.6,36.7"/>
	<path class="st0" d="M90.1,24.7c0.6,1.3,1,2.7,1.1,4c-3.7,0.1-7.2,1-10.3,2.6l1.7,2.9c2.7-1.3,5.8-2.1,8.9-2.2h1.7
		c6.5,0.3,12.1,4,14.8,8.5c0,0,0,0.1,0.1,0.1c0.3,0.3,0.5,0.8,0.6,1.1c0,0.1,0.1,0.1,0.1,0.3c0.1,0.3,0.3,0.8,0.5,1.1
		c0,0.1,0.1,0.3,0.1,0.3c0.1,0.3,0.3,0.6,0.3,1c0,0.3,0.1,0.5,0.1,0.6c0,0.3,0.1,0.5,0.1,0.8c0,0.5,0.1,0.8,0.1,1.3v0.3
		c0,0.5,0,1-0.1,1.5c0,0.1,0,0.3,0,0.3c0,0.3-0.1,0.8-0.3,1c0,0.1,0,0.3-0.1,0.3c-0.1,0.3-0.3,0.8-0.3,1.1c0,0.1,0,0.1-0.1,0.3
		c-0.3,0.8-0.8,1.8-1.3,2.6c0,0,0,0.1-0.1,0.1c-0.3,0.3-0.5,0.8-0.8,1c0,0.1-0.1,0.1-0.1,0.3c-0.3,0.3-0.5,0.6-0.8,0.8
		c-0.1,0.1-0.1,0.1-0.3,0.3c-0.3,0.3-0.6,0.5-0.8,0.8c-0.3,0.3-0.8,0.6-1.3,1l0,0c-1.8,1.3-3.9,2.2-6.3,2.8L96,61.8
		c-1.3,0.3-2.7,0.3-4.2,0.3c-1.3,0-2.4-0.1-3.7-0.3l-0.8,3.2c1.5,0.3,2.9,0.3,4.4,0.3c1.7,0,3.5,0,5.1-0.3c1.6,2.8,2.1,6.3,1.3,8.3
		c-1.3,3.7-5.8,5.8-12.1,5.8c-4.2,0-8.8-1-13.2-2.8c-1.5-0.6-3.5-1.6-4.9-2.3c1.8-2.3,2.9-5,3.1-7.7c0-1.5-0.3-3.1-0.8-4.5l-2.8,1.6
		c0.3,1,0.5,1.9,0.5,2.9c-0.1,2.1-1,4.2-2.7,6l-1,0.8c-4.2,3.8-11.1,5.8-18.5,5.6c-10.3-0.3-18.9-5.3-20.9-11.3
		c-0.3-0.8-0.3-1.7-0.3-2.6c0.1-1.9,0.6-4.7,2.2-6.5l1.3-1.5c1.3-1.1,2.7-2.1,4.5-2.8l-1.3-2.9c-2.4,1.1-4.4,2.4-6,4
		c-6.3-3.7-10-8.8-9.7-13.9c0.5-6.8,8.5-13.1,19.2-14.8c0.3,4.3,2.1,8.7,5.5,12.6l2.2-2.2c-2.8-3.3-4.4-6.9-4.5-10.5l0.1-1.5
		c0.1-1.1,0.3-2.1,0.6-3.1c0.3-0.5,0.3-1,0.6-1.5c1.3-2.2,3.1-4,5.6-5.3v-0.1c2.2-1.1,4.9-1.7,7.8-1.7c2.8,0,5.6,0.6,8.4,1.7
		c3.4,1.5,6.5,3.7,8.8,6.3l1.1,1.4l1.3-0.8c2.8-1.6,5.8-2.4,8.7-2.4C85,19.6,88.4,21.4,90.1,24.7"/>
</g>
<g>
	<path d="M93.6,130.3L93.6,130.3c-2.8,0-5.6-0.4-7.9-1.4c-1.3-0.4-31.4-15.1-32.8-15.7h-0.2c-5.6-3.5-5.9-13.4-5.9-13.8v-0.4
		l0.3-0.3l23.1-30c0.8-1.4,2.7-3.1,6.3-3.1c0.8,0,1.5,0,2.5,0.2l3.5-4.4c2.5-3.1,5.6-4.6,9.3-4.6s6.9,1.7,7.7,2.1l23.7,2.5l0.2,0.2
		c9.8,6.3,6.3,26.6,6.2,27.4v0.2l-25.6,37C102.1,128.8,98.4,130.3,93.6,130.3"/>
	<path class="st1" d="M50.3,105c0.6,2.4,1.9,4.8,4,6.1c10.9,5.3,31.7,15.2,32.5,15.6c2,0.8,4.5,1.3,7,1.3c2.4,0,6.3-0.4,8.8-3.3
		l25.6-36.5c0.3-1.5,1.5-10.9-0.6-17.8c-0.3,0.9-0.6,1.5-0.6,1.7l-26.2,46.2c-1.5,2.9-4.5,4.4-8.2,4.4c-3.8,0-7-1.4-7.2-1.5
		l-30.5-13.5C53,106.8,51.6,106.1,50.3,105"/>
	<path d="M92.4,122.6L92.4,122.6c-3.8,0-7-1.4-7.2-1.5l-30.4-13.4c-4-1.7-6.4-4-7.3-6.7c-1.1-3.3,0.4-6.1,0.4-6.1l26-46.2
		c1.5-2.9,4.5-4.4,8.2-4.4c3.8,0,7,1.4,7.2,1.5l30.5,13.4c4,1.7,6.3,4,7.3,6.7c1.1,3.3-0.4,6.1-0.4,6.1l-26,46
		C99.1,121,96.2,122.6,92.4,122.6"/>
	<path class="st0" d="M82.4,46.5c-2.9,0-5.1,1.1-6.3,3.3L49.8,96c0,0-1.1,2-0.3,4.4c0.8,2.1,2.8,4,6.1,5.5l30.5,13.4
		c0,0,3.1,1.3,6.3,1.3c2.9,0,5.1-1.1,6.3-3.3L124.9,71c0,0,1.1-2,0.3-4.4c-0.8-2.1-2.8-4-6.1-5.5L88.6,47.9
		C88.6,47.9,85.5,46.5,82.4,46.5"/>
	<path d="M57.4,102.6c-7.7,0-14.1-6.5-14.1-14.5c0-2.8,0.8-5.6,2.4-7.9c0.2-0.4,0.3-0.6,0.3-0.6l20-34.6c0.2-0.3,0.4-0.8,0.6-1.1
		c2.5-4.8,7.3-7.7,12.6-7.7c7.7,0,14.1,6.5,14.1,14.5S87,65.2,79.2,65.2c-0.4,0-0.9,0-1.4-0.2l-8.8,15.1c1.7,2.5,2.7,5.3,2.7,8.2
		C71.6,96.3,65.3,102.6,57.4,102.6"/>
	<path class="st0" d="M91.2,50.7c0-6.7-5.5-12.1-12-12.1c-4.5,0-8.8,2.7-10.7,6.7h-0.2c-0.3,0.3-0.4,0.6-0.6,0.9l-20,34.4
		c0,0-0.2,0.2-0.3,0.6v0.3c-1.4,2-2,4.4-2,6.9c0,6.7,5.5,12.1,12,12.1c3.4,0,6.7-1.5,8.8-4c-5.1,0.4-8.2-2.1-6.2-5.3l21.8-37.7
		l0.3-0.4c4.2-7.2,6.5-1.3,7.6,3.5C90.5,55,91.2,52.9,91.2,50.7"/>
	<path d="M106.9,84.6L106.9,84.6c-1.7,0-2.9-0.6-3.1-0.6l-12-5.5c-2.1-0.9-3.4-2.4-4-4.2c-1.1-2.9,0.4-5.9,0.6-6.1l3.5-6.5
		c1.7-3.1,4.2-3.8,5.9-3.8s2.9,0.6,3.1,0.6l12,5.5c2.1,0.9,3.4,2.4,4,4.2c1.1,2.9-0.4,5.9-0.6,6.1l-3.5,6.5
		C111.2,83.9,108.8,84.6,106.9,84.6"/>
	<path class="st2" d="M97.8,60.3c-1.7,0-2.9,0.8-4,2.5l-3.5,6.5c0,0-1.1,2.1-0.4,4.2c0.4,1.1,1.4,2,2.8,2.8l12,5.5
		c0,0,0.9,0.4,2.1,0.4c1.7,0,2.9-0.8,4-2.5l3.5-6.5c0,0,1.1-2.1,0.4-4.2c-0.4-1.1-1.4-2-2.8-2.8l-12-5.5C100,60.8,99,60.3,97.8,60.3
		"/>
	<path d="M38.7,112.5c-3.1,0-5.5-0.8-7.2-2.1c-1.7-1.5-2.4-3.8-1.9-6.1c1.1-4.5,7.2-10.5,21-13.8l0.8,2.9
		c-11.5,2.8-17.8,7.7-18.7,11.7c-0.3,1.3,0,2.1,0.8,2.9c1.9,1.7,7.2,2.4,16-1.1l1.1,2.9C46.1,111.5,41.9,112.5,38.7,112.5"/>
	<path d="M79.8,93.9c1.3,0,2.4-1.1,2.5-2.5c0.2-1.4-0.9-2.5-2.1-2.5c-1.3,0-2.4,1.1-2.5,2.5C77.3,92.7,78.3,93.8,79.8,93.9"/>
	<path d="M76.2,100.5c1.3,0,2.4-1.1,2.5-2.5c0.2-1.4-0.9-2.5-2.1-2.5s-2.4,1.1-2.5,2.5C74.1,99.4,75,100.5,76.2,100.5"/>
	<path d="M72.7,106.8c1.3,0,2.4-1.1,2.5-2.5c0.2-1.4-0.9-2.5-2.1-2.5c-1.3,0-2.4,1.1-2.5,2.5C70.6,105.6,71.4,106.8,72.7,106.8"/>
	<path d="M85.5,96.5c1.3,0,2.4-1.1,2.5-2.5c0.2-1.4-0.9-2.5-2.1-2.5c-1.3,0-2.4,1.1-2.5,2.5C83.1,95.4,84.1,96.5,85.5,96.5"/>
	<path d="M82,102.9c1.3,0,2.4-1.1,2.5-2.5c0.2-1.4-0.9-2.5-2.1-2.5c-1.3,0-2.4,1.1-2.5,2.5C79.8,101.9,80.9,102.9,82,102.9"/>
	<path d="M78.5,109.3c1.3,0,2.4-1.1,2.5-2.5c0.2-1.4-0.9-2.5-2.1-2.5s-2.4,1.1-2.5,2.5C76.2,108.2,77.2,109.3,78.5,109.3"/>
	<path d="M91.1,99.6c1.3,0,2.4-1.1,2.5-2.5s-0.9-2.5-2.1-2.5c-1.3,0-2.4,1.1-2.5,2.5C88.9,98.4,89.9,99.6,91.1,99.6"/>
	<path d="M87.8,106.1c1.3,0,2.4-1.1,2.5-2.5c0.2-1.4-0.9-2.5-2.1-2.5c-1.3,0-2.4,1.1-2.5,2.5C85.7,105,86.5,106.1,87.8,106.1"/>
	<path d="M84.2,112.5c1.3,0,2.4-1.1,2.5-2.5c0.2-1.4-0.9-2.5-2.1-2.5c-1.3,0-2.4,1.1-2.5,2.5C82,111.4,83,112.5,84.2,112.5"/>
	<path d="M96.8,102c1.3,0,2.4-1.1,2.5-2.5c0.2-1.4-0.9-2.5-2.1-2.5c-1.3,0-2.4,1.1-2.5,2.5C94.7,100.9,95.6,102,96.8,102"/>
	<path d="M93.6,108.7c1.3,0,2.4-1.1,2.5-2.5c0.2-1.4-0.9-2.5-2.1-2.5c-1.3,0-2.4,1.1-2.5,2.5C91.2,107.7,92.3,108.7,93.6,108.7"/>
	<path d="M89.9,115c1.3,0,2.4-1.1,2.5-2.5c0.2-1.4-0.9-2.5-2.1-2.5c-1.3,0-2.4,1.1-2.5,2.5C87.8,113.9,88.8,115,89.9,115"/>
	<path d="M93.8,90.7c2.5,0,4.4-1.9,4.4-4.2s-2-4.2-4.4-4.2c-2.5,0-4.4,1.9-4.4,4.2C89.4,89,91.4,90.7,93.8,90.7"/>
</g>
</svg>
