<?xml version="1.0" encoding="utf-8"?>
<!-- Generator: Adobe Illustrator 22.0.1, SVG Export Plug-In . SVG Version: 6.00 Build 0)  -->
<svg version="1.1" id="Layer_1" xmlns="http://www.w3.org/2000/svg" xmlns:xlink="http://www.w3.org/1999/xlink" x="0px" y="0px"
	 viewBox="0 0 142 142" style="enable-background:new 0 0 142 142;" xml:space="preserve">
<style type="text/css">
	.st0{fill:#FFFFFF;}
	.st1{fill:#84BBD7;}
	.st2{fill:#BFD8E8;}
	.st3{opacity:0.6;}
</style>
<g>
	<path class="st0" d="M31.6,59.9c-1,0.5-1.9,1-2.7,1.7c-0.2,0.1-0.3,0.3-0.5,0.4c-0.2,0-0.3,0.1-0.5,0.1c-1.2,0.2-2.4,0.6-3.5,1.1
		c-5.6,2.6-9.9,8.9-11,16.5c-0.3,1.8,1.6,3.2,3.3,2.4l4-1.8c0,12.1,7.7,21.9,17.2,21.9c2.1,0,4.1-0.5,5.9-1.3l44.7-20.4l2.6,12.8
		c0,2.7,2.2,4.9,4.9,4.9l17.1,2.9c0.8,3.9,3.8,7.1,7.2,7.1c4.4,0,8.2-5.2,8.2-10.7c0-5.6-3.6-10.1-8-10.1c-2.6,0-5,1.6-6.4,4.1
		l-14.1-2.4l-2.6-12.7l0.6-0.3l0.5-0.2c6.5-3.1,11.1-11.1,11.1-20.4v-0.2l3-1.4c0-12.1-7.7-21.9-17.2-21.9c-2,0-3.9,0.4-5.7,1.2
		l-0.5,0.2L35.3,58.2l-1.4,0.7l0,0l-1.1,0.5l-0.5,0.2L32,59.8l-0.2,0.1 M24.4,63.3 M37.9,94.9c-5.9,0-10.7-6.5-10.7-14.6
		c0-1.1,0.1-2.1,0.2-3.2c1.1-6.5,5.3-11.4,10.5-11.4c0.7,0,1.3,0.1,1.9,0.2c0,0,0.3-0.2,0.8,0.2c0.5,0.4,0.9,0.9,1.3,1.4
		c0.4,0.4,0.7,0.9,1.1,1.4c0.2,0.3,0.4,0.5,0.6,0.8c0.9,1.3,1.7,2.8,2.3,4.4c0.7,1.7,1.2,3.6,1.5,5.6c0,0.3,0.1,0.5,0.1,0.8
		c0.1,0.8,0.5,1.4,1.1,1.7C47.8,89.4,43.3,94.9,37.9,94.9z"/>
	<g>
		<path class="st1" d="M95.3,89.4c-2.3,0.1-4.2,1.7-4.7,3.9c0,0,0,0,0,0l0.1,0.5c0,2.7,2.2,4.9,4.9,4.9l1.2,0.2
			c1.9-0.7,3.3-2.5,3.3-4.6C100.1,91.7,98,89.5,95.3,89.4z"/>
		<path class="st1" d="M54.6,81.3L54.6,81.3l-0.3,0.2c0,8.4-3.8,15.6-9.3,19.2L88.2,81l0,0.2l8.4-3.8l0.5-0.3l0-0.2l0.6-0.3l0.5-0.2
			c1.2-0.6,2.4-1.3,3.4-2.2c0.1,0,0.1-0.1,0.2-0.1c4.2-4,7-10.4,7-17.6v0L54.6,81.3z"/>
	</g>
	<g>
		<path class="st2" d="M112.4,54.4c0-12.1-7.7-21.9-17.2-21.9c-2,0-3.9,0.4-5.7,1.2L89,33.9l-56.5,26l-0.5,0.2l-0.5,0.2
			c-1.2,0.6-2.4,1.3-3.4,2.2c0.6-0.1,1.3-0.1,1.9-0.1c5.3,0,10.1,3.1,13.2,7.9c2,3,3.3,6.7,3.8,10.8c0.2,1.6,1.8,2.5,3.3,1.8
			l4.5-2.1v0l54.4-25L112.4,54.4z"/>
		<path class="st2" d="M123.1,94.5c-0.7-0.9-1.7-1.4-2.7-1.4l-6.4-1.1l-14.1-2.4l-2.6-12.7l-9,4.1l2.6,12.8c0-2.7,2.2-4.9,4.9-4.9
			c2.7,0,4.9,2.2,4.9,4.9s-2.2,4.9-4.9,4.9l17.1,2.9l6.4,1.1l0,0l1,0.2c2.1,0,3.9-2.2,3.9-4.9C124.2,96.6,123.8,95.4,123.1,94.5z"/>
	</g>
	<path class="st3" d="M45.5,74.7c-13-0.6-31.6,7.7-31.6,7.7c-1-8.1,5.1-18.3,14.1-20.2c0.6-0.1,1.3-0.1,1.9-0.1
		c2.6,0,5.1,0.7,7.4,2.1l5.3,5c0.2,0.3,0.4,0.5,0.6,0.8C44,71.4,44.8,73,45.5,74.7z"/>
	<path d="M120,84.5c-3.4,0-6.6,1.9-8.6,5.2L101.1,88l-2.1-10.1c7-3.5,11.5-11.6,11.8-20.9l3.1-1.4l0-1.2c0-13.1-8.6-23.7-19.1-23.7
		c-2.2,0-4.4,0.5-6.4,1.4L32.1,57.9l-1.4,0.6l0,0l-0.2,0.1c0,0-0.1,0-0.1,0.1L23.1,62c0,0,0,0,0,0C16.9,64.9,12.2,71.8,11,80
		c-0.2,1.5,0.4,3,1.6,3.9c1.2,0.9,2.9,1.1,4.3,0.5l1.5-0.7c1.1,11.8,9.2,20.9,18.9,20.9c2.4,0,4.6-0.5,6.7-1.5l0,0l42.5-19.4
		L88.8,94c0.1,3.5,3,6.4,6.5,6.5l14.6,2.5c1.6,5,5.7,8.4,10.1,8.4c6,0,11-6,11-13.4C131,90.5,126.1,84.5,120,84.5z M101,97.7
		c0.8-1.1,1.3-2.5,1.3-4c0-0.7-0.1-1.3-0.3-1.9l17.8,3l0.3,0c1.1,0,2,1.4,2,3.1c0,1.6-0.9,2.9-1.9,3L101,97.7z M97.2,74.7L52.6,95.1
		c2.2-3.7,3.6-8.2,3.8-13.1l50.6-23.3C106.3,65.9,102.5,72.1,97.2,74.7z M89.5,35.6l0.4-0.2c1.6-0.7,3.2-1,4.9-1
		c8.2,0,14.9,8.4,15.4,18.9l-60.8,28c-0.2,0.1-0.3,0-0.4,0c-0.1-0.1-0.2-0.2-0.2-0.4c-0.5-4.2-1.9-8.2-4.1-11.6
		c-2.7-4.2-6.5-7-10.6-8.1l0.1-0.1l1.5-0.7l0,0L89.5,35.6z M15.4,81c-0.2,0.1-0.4,0-0.5-0.1c-0.1-0.1-0.2-0.2-0.2-0.4
		c0.8-5.5,3.4-10.3,7-13.2c-2,3.6-3.2,7.8-3.3,12.3L15.4,81z M22,80.8c0-6.6,2.5-12.7,6.7-16.5c0.4,0,0.7-0.1,1.2-0.1
		c2.4,0,4.6,0.7,6.7,2c-5.5,0.6-9.9,6.9-9.9,14.5c0,8,4.8,14.6,10.7,14.6c4.9,0,9.1-4.5,10.3-10.7c0.5,0.2,1,0.3,1.5,0.3
		c0.6,0,1.2-0.1,1.7-0.4l1.7-0.8c-1.1,9.6-7.5,17.1-15.2,17.1C28.9,100.8,22,91.8,22,80.8z M95.6,79.5l1.6,7.8
		c-0.5-0.1-1.1-0.2-1.7-0.2c-1.5,0-3,0.5-4.1,1.4L90.1,82L95.6,79.5z M92.5,93.8c0-1.7,1.4-3.1,3.1-3.1c1.7,0,3.1,1.4,3.1,3.1
		s-1.4,3.1-3.1,3.1C93.8,96.8,92.5,95.5,92.5,93.8z M120,107.7c-2.3,0-4.4-1.5-5.8-3.9l5.5,0.9l0.3,0c3.1,0,5.7-3,5.7-6.8
		c0-3.7-2.5-6.6-5.5-6.7l-4.8-0.8c1.3-1.4,2.9-2.2,4.6-2.2c4,0,7.3,4.4,7.3,9.7C127.3,103.3,124,107.7,120,107.7z"/>
	<path class="st0" d="M37.8,91.3c-1.3-0.8-1.5-2.8-0.5-4.4c1-1.7,2.9-2.4,4.2-1.6C42.7,86,43,88,42,89.7
		C41,91.4,39.1,92.1,37.8,91.3z"/>
	<path class="st0" d="M38.5,82.8c-0.9-0.5-1-1.9-0.4-3c0.7-1.1,1.9-1.6,2.8-1.1c0.9,0.5,1,1.9,0.4,3C40.7,82.9,39.4,83.4,38.5,82.8z
		"/>
</g>
</svg>
