<svg xmlns="http://www.w3.org/2000/svg" viewBox="0 0 32 32"><defs><style>.cls-1{opacity:0;}.cls-2{fill:#f0f;}.cls-3{fill:#fff;}.cls-4{fill:none;stroke:#000;stroke-miterlimit:10;}</style></defs><title>cloud</title><g id="Layer_2" data-name="Layer 2"><g id="Layer_1-2" data-name="Layer 1"><g class="cls-1"><rect class="cls-2" width="32" height="32"/></g><path class="cls-3" d="M15.31,14.36l.19.14C15.54,14.43,15.47,14.39,15.31,14.36Z"/><path class="cls-3" d="M31.5,15.43c0-2.62-2.07-4.87-5-5.87h0a5.11,5.11,0,0,0,0-.56,4,4,0,0,0-3.66-4.24,3.55,3.55,0,0,0-3.17,2.15A7,7,0,0,0,13.91,4,6.89,6.89,0,0,0,7.33,8.51H7a6.56,6.56,0,0,0-4.37,1.63,5.83,5.83,0,0,0-2,4.37,5.76,5.76,0,0,0,1.76,4.13l0-.05A7.54,7.54,0,0,0,2,21a8.26,8.26,0,0,0,8.5,8,8.67,8.67,0,0,0,6.7-3.08h0a7.82,7.82,0,0,0,6.3,2.58c3.52,0,4.88-4,4.88-7.53a3.53,3.53,0,0,0-.07-.53A6,6,0,0,0,31.5,15.43Z"/><path class="cls-4" d="M17,25.59l.23.33a7.82,7.82,0,0,0,6.3,2.58c3.52,0,4.88-4,4.88-7.53a4.93,4.93,0,0,0,0-.55"/><path class="cls-4" d="M2.38,18.63A5.76,5.76,0,0,1,.62,14.5a5.83,5.83,0,0,1,2-4.37A6.56,6.56,0,0,1,7,8.5h.33"/><path class="cls-4" d="M26.47,9.56a5.12,5.12,0,0,0,0-.56,4,4,0,0,0-3.66-4.24,3.55,3.55,0,0,0-3.17,2.15A7,7,0,0,0,13.91,4,6.89,6.89,0,0,0,7.33,8.51s0,0,0,.05A6.25,6.25,0,0,0,7,10.5,6.17,6.17,0,0,0,8.09,14"/><path class="cls-4" d="M4.94,15A7.76,7.76,0,0,0,2,21a8.26,8.26,0,0,0,8.5,8,8.47,8.47,0,0,0,8-5.3"/><path class="cls-4" d="M23,9c4.69,0,8.5,2.88,8.5,6.43,0,2.61-2.05,4.85-5,5.86"/></g></g></svg>