<svg xmlns="http://www.w3.org/2000/svg" viewBox="0 0 32 32"><defs><style>.cls-1{opacity:0;}.cls-2{fill:#f0f;}.cls-3{fill:#ed1c24;}.cls-3,.cls-4{stroke:#000;}.cls-4,.cls-6{fill:none;}.cls-5{fill:#fff;}.cls-6{stroke:#ed1c24;}</style></defs><title>firewall</title><g id="Layer_2" data-name="Layer 2"><g id="Layer_1-2" data-name="Layer 1"><g class="cls-1"><rect class="cls-2" width="32" height="32"/></g><path class="cls-3" d="M30.22,6.73c-1.09-1.07-3.94-4-4.3-4.41A6.72,6.72,0,0,0,24.39,1,3.92,3.92,0,0,0,22.92.52a3.84,3.84,0,0,0-.79,0l-.41.06a2.3,2.3,0,0,1-.39.1l-18,5.69A4.1,4.1,0,0,0,.5,10.3V22.25a4.19,4.19,0,0,0,.65,2.25c.47.73,4.93,5.23,5.58,5.85a3.91,3.91,0,0,0,3.94,1l18-5.69A4.1,4.1,0,0,0,31.5,21.7V9.75A4.13,4.13,0,0,0,30.22,6.73Z"/><line class="cls-4" x1="24.5" y1="6.4" x2="19.49" y2="1.26"/><line class="cls-4" x1="12.5" y1="10.19" x2="7.49" y2="5.05"/><polyline class="cls-4" points="1.03 8.28 6.03 13.4 6.19 13.57"/><line class="cls-4" x1="5.5" y1="19.38" x2="0.5" y2="14.25"/><line class="cls-4" x1="5.5" y1="26.64" x2="0.5" y2="21.51"/><path class="cls-5" d="M26.32,5.82l-18,5.69A4.1,4.1,0,0,0,5.5,15.44V27.39a4,4,0,0,0,5.18,3.93l18-5.69A4.1,4.1,0,0,0,31.5,21.7V9.75A4,4,0,0,0,26.32,5.82Z"/><line class="cls-6" x1="31.5" y1="18.41" x2="5.5" y2="26.64"/><line class="cls-6" x1="31.5" y1="11.16" x2="5.5" y2="19.38"/><line class="cls-6" x1="18.5" y1="15.27" x2="18.5" y2="22.53"/><line class="cls-6" x1="12.5" y1="10.19" x2="12.5" y2="16.89"/><line class="cls-6" x1="24.5" y1="6.4" x2="24.5" y2="13.52"/><line class="cls-6" x1="12.5" y1="24.42" x2="12.5" y2="30.74"/><line class="cls-6" x1="24.5" y1="20.63" x2="24.5" y2="26.95"/><path class="cls-4" d="M26.32,5.82l-18,5.69A4.1,4.1,0,0,0,5.5,15.44V27.39a4,4,0,0,0,5.18,3.93l18-5.69A4.1,4.1,0,0,0,31.5,21.7V9.75A4,4,0,0,0,26.32,5.82Z"/></g></g></svg>