<svg xmlns="http://www.w3.org/2000/svg" viewBox="0 0 32 32"><defs><style>.cls-1{fill:#d1e2ed;}.cls-2,.cls-3,.cls-4{fill:none;}.cls-2,.cls-5{stroke:#000;}.cls-2,.cls-3,.cls-4,.cls-5{stroke-linecap:round;stroke-linejoin:round;}.cls-2{stroke-width:4px;}.cls-3{stroke:#fff;}.cls-3,.cls-4{stroke-width:2px;}.cls-4{stroke:#84bbd7;}.cls-5{fill:#84bbd7;}</style></defs><title>mls</title><g id="Layer_2" data-name="Layer 2"><g id="Layer_1-2" data-name="Layer 1"><rect class="cls-1" x="0.5" y="0.5" width="31" height="31"/><path d="M31,1V31H1V1H31m1-1H0V32H32V0Z"/><line class="cls-2" x1="16" y1="3" x2="16" y2="12"/><polyline class="cls-2" points="13 5 16 3 19 5"/><line class="cls-2" x1="16" y1="29" x2="16" y2="20"/><polyline class="cls-2" points="19 27 16 29 13 27"/><line class="cls-2" x1="29" y1="16" x2="20" y2="16"/><polyline class="cls-2" points="27 13 29 16 27 19"/><line class="cls-2" x1="3" y1="16" x2="12" y2="16"/><polyline class="cls-2" points="5 19 3 16 5 13"/><line class="cls-2" x1="26.19" y1="5.81" x2="19.24" y2="12.76"/><polyline class="cls-2" points="22.66 5.1 26.19 5.81 26.9 9.34"/><line class="cls-2" x1="5.81" y1="26.19" x2="12.76" y2="19.24"/><polyline class="cls-2" points="9.34 26.9 5.81 26.19 5.1 22.66"/><line class="cls-2" x1="26.19" y1="26.19" x2="19.24" y2="19.24"/><polyline class="cls-2" points="26.9 22.66 26.19 26.19 22.66 26.9"/><line class="cls-2" x1="5.81" y1="5.81" x2="12.76" y2="12.76"/><polyline class="cls-2" points="5.1 9.34 5.81 5.81 9.34 5.1"/><line class="cls-3" x1="16" y1="3" x2="16" y2="12"/><polyline class="cls-3" points="13 5 16 3 19 5"/><line class="cls-3" x1="16" y1="29" x2="16" y2="20"/><polyline class="cls-3" points="19 27 16 29 13 27"/><line class="cls-3" x1="29" y1="16" x2="20" y2="16"/><polyline class="cls-3" points="27 13 29 16 27 19"/><line class="cls-3" x1="3" y1="16" x2="12" y2="16"/><polyline class="cls-3" points="5 19 3 16 5 13"/><line class="cls-3" x1="16" y1="3" x2="16" y2="12"/><polyline class="cls-3" points="13 5 16 3 19 5"/><line class="cls-3" x1="16" y1="29" x2="16" y2="20"/><polyline class="cls-3" points="19 27 16 29 13 27"/><line class="cls-3" x1="29" y1="16" x2="20" y2="16"/><polyline class="cls-3" points="27 13 29 16 27 19"/><line class="cls-3" x1="3" y1="16" x2="12" y2="16"/><polyline class="cls-3" points="5 19 3 16 5 13"/><line class="cls-4" x1="26.19" y1="5.81" x2="19.83" y2="12.17"/><polyline class="cls-4" points="22.66 5.1 26.19 5.81 26.9 9.34"/><line class="cls-4" x1="5.81" y1="26.19" x2="12.17" y2="19.83"/><polyline class="cls-4" points="9.34 26.9 5.81 26.19 5.1 22.66"/><line class="cls-4" x1="26.19" y1="26.19" x2="19.83" y2="19.83"/><polyline class="cls-4" points="26.9 22.66 26.19 26.19 22.66 26.9"/><line class="cls-4" x1="5.81" y1="5.81" x2="12.17" y2="12.17"/><polyline class="cls-4" points="5.1 9.34 5.81 5.81 9.34 5.1"/><circle class="cls-5" cx="16" cy="16" r="5.5"/></g></g></svg>