<?xml version="1.0" encoding="utf-8"?>
<!-- Generator: Adobe Illustrator 22.0.1, SVG Export Plug-In . SVG Version: 6.00 Build 0)  -->
<svg version="1.1" id="Layer_1" xmlns="http://www.w3.org/2000/svg" xmlns:xlink="http://www.w3.org/1999/xlink" x="0px" y="0px"
	 viewBox="0 0 142 142" style="enable-background:new 0 0 142 142;" xml:space="preserve">
<style type="text/css">
	.st0{fill:#FFFFFF;}
	.st1{fill:#BFD8E8;}
</style>
<path d="M72.7,121c0,0,23.7,0.3,36.1-6.3s24.3-10.9,24.3-17.4s-14.7-8.1-14.7-8.1L72.7,121z"/>
<g>
	<path class="st0" d="M72,120c-0.3,0-0.6,0-1-0.1l-40.2-5.7c-4.2-0.6-7.7-4.8-7.7-9.4l-0.1-58.5c0-3,1.5-5.5,4-6.6l1.2-0.5l0,0
		l39-16.7l0.2-0.1c0.8-0.3,1.6-0.5,2.4-0.5c0.3,0,0.6,0,1,0.1l40.2,5.7c4.2,0.6,7.7,4.8,7.7,9.4l0,18.9l0,20.8l0,3.6l0,15.2
		c0,2.9-1.4,5.4-3.8,6.5l-0.2,0.1l-38.5,16.5l0-0.1l-1.8,0.8C73.8,119.8,72.9,120,72,120z"/>
	<path class="st1" d="M78.7,52.9l-1.8-4.6l-4.7-3.6l-43.4-5.7l38.5-16.5l0.2-0.1c0.8-0.3,1.6-0.5,2.4-0.5c0.3,0,0.7,0,1,0.1
		l40.2,5.7c4.2,0.6,7.7,4.8,7.7,9.4l0,18.9l0,20.8l0,3.6l0,15.2c0,2.9-1.4,5.4-3.8,6.5l-0.2,0.1l-36.2,15.5V52.9z"/>
	<g>
		<polygon points="71.9,105.2 56.4,103 56.4,106.7 71.9,108.8 71.9,107 		"/>
		<path d="M35.7,58.6c2.8,0.4,5.1-1.7,5.1-4.8c0-3-2.3-5.8-5.1-6.2c-2.8-0.4-5.1,1.7-5.1,4.8C30.6,55.4,32.9,58.2,35.7,58.6z
			 M35.7,51.3c0.9,0.1,1.7,1.1,1.7,2.1c0,1-0.8,1.7-1.7,1.6c-1-0.1-1.7-1.1-1.7-2.1C34,51.8,34.7,51.1,35.7,51.3z"/>
		<path d="M35.7,72c-2.8-0.4-5.1,1.7-5.1,4.8c0,3,2.3,5.8,5.1,6.2c2.8,0.4,5.1-1.7,5.1-4.8C40.8,75.2,38.5,72.4,35.7,72z M35.7,79.4
			c-1-0.1-1.7-1.1-1.7-2.1c0-1,0.8-1.7,1.7-1.6c0.9,0.1,1.7,1.1,1.7,2.1C37.4,78.8,36.7,79.5,35.7,79.4z"/>
		<polygon points="71.9,80.8 56.3,78.6 56.3,82.2 71.9,84.4 71.9,82.6 		"/>
		<path d="M35.8,96.5c-2.8-0.4-5.1,1.7-5.1,4.8c0,3,2.3,5.8,5.1,6.2c2.8,0.4,5.1-1.7,5.1-4.8C40.8,99.6,38.6,96.9,35.8,96.5z
			 M35.8,103.8c-1-0.1-1.7-1.1-1.7-2.1c0-1,0.8-1.7,1.7-1.6c0.9,0.1,1.7,1.1,1.7,2.1C37.5,103.2,36.7,103.9,35.8,103.8z"/>
		<polygon points="71.8,60 71.8,58.2 71.8,56.4 56.3,54.2 56.3,57.8 		"/>
		<path d="M119.9,80.4l0-3.6l0-20.8l0-3.6l0-15.2c0-5.1-3.8-9.7-8.5-10.4l-40.2-5.7C70.7,21,70.3,21,70,21c-1,0-1.9,0.2-2.8,0.5
			l-0.1,0l-0.1,0L26.7,38.9l0,0c-2.7,1.2-4.6,4-4.6,7.5l0,15.2l0,24.4l0,18.9c0,5.1,3.8,9.7,8.5,10.4l40.2,5.7
			c1.5,0.2,2.9,0,4.1-0.6l0,0l40.2-17.2l0.1,0l0.1,0c2.7-1.2,4.5-4,4.5-7.5L119.9,80.4z M30.7,42l40.2,5.7c2.8,0.4,5.2,3.2,5.2,6.3
			l0,15.2l-50.5-7.1l0-15.2C25.5,43.8,27.8,41.6,30.7,42z M25.6,86.5l0-20.8l50.5,7.1l0,20.8L25.6,86.5L25.6,86.5z M71,117.3
			l-40.2-5.7c-2.8-0.4-5.2-3.2-5.2-6.3l0-15.2l50.5,7.1l0,15.2C76.2,115.5,73.9,117.7,71,117.3z M70.9,44l-35.1-4.9l32.5-13.9
			l0.2-0.1l0.3-0.1c0.4-0.1,0.8-0.2,1.2-0.2c0.2,0,0.4,0,0.6,0l40.2,5.7c0.9,0.1,1.8,0.6,2.6,1.2L76.7,47.3
			C75.2,45.6,73.1,44.3,70.9,44z M114.1,99.6L114.1,99.6l-0.4,0.2l-34.3,14.7c0.1-0.5,0.1-1,0.1-1.5l0-15.2v0l0-3.6l0-20.8l0-18.9
			c0-1.3-0.3-2.6-0.7-3.8l36.9-15.8c0.3,0.8,0.4,1.5,0.4,2.4l0,15.2l0,3.6l0,20.8l0,3.6l0,15.2C116.2,97.4,115.4,98.9,114.1,99.6z"
			/>
	</g>
</g>
</svg>
