<svg xmlns="http://www.w3.org/2000/svg" viewBox="0 0 32 32"><defs><style>.cls-1{opacity:0;}.cls-2{fill:#f0f;}.cls-3,.cls-7{fill:#d1e2ed;}.cls-3,.cls-4,.cls-5,.cls-6,.cls-7{stroke:#000;}.cls-3,.cls-4,.cls-5,.cls-6{stroke-miterlimit:10;}.cls-4{fill:#fff;}.cls-5{fill:#d1d0d0;}.cls-6{fill:none;}.cls-7{stroke-linejoin:round;}</style></defs><title>pc</title><g id="Layer_2" data-name="Layer 2"><g id="Layer_1-2" data-name="Layer 1"><g class="cls-1"><rect class="cls-2" width="32" height="32"/></g><path class="cls-3" d="M28.5,4.12a2,2,0,0,0-1.82-2L9.68.51A2,2,0,0,0,8.17,1L5.5,3.43a4.39,4.39,0,0,0-1,2V17.38a2,2,0,0,0,1.82,2l17,1.63a5,5,0,0,0,2.54-.52L28,17.34A2,2,0,0,0,28.5,16Z"/><path class="cls-4" d="M18.81,23.5,13.08,23a.6.6,0,0,1-.58-.57v-3.4a.61.61,0,0,1,.69-.57l5.73.46a.6.6,0,0,1,.58.57v3.4A.61.61,0,0,1,18.81,23.5Z"/><path class="cls-4" d="M24.32,21l-18-1.67a2,2,0,0,1-1.82-2V5A2,2,0,0,1,6.68,3l18,1.67a2,2,0,0,1,1.82,2V19A2,2,0,0,1,24.32,21Z"/><path class="cls-5" d="M6.5,16.42V6.14a1,1,0,0,1,1.09-1l16,1.45a1,1,0,0,1,.91,1V17.9a1,1,0,0,1-1.09,1l-16-1.49A1,1,0,0,1,6.5,16.42Z"/><line class="cls-3" x1="25.99" y1="5.36" x2="28.27" y2="3.08"/><path class="cls-4" d="M29.38,25.5h0a2.14,2.14,0,0,1,1.89,3.09l-1.95,2.33a1.6,1.6,0,0,1-1.22.58h0a1.62,1.62,0,0,1-1.52-2.13L27.38,27A2.12,2.12,0,0,1,29.38,25.5Z"/><line class="cls-4" x1="27.36" y1="27" x2="31.32" y2="28"/><path class="cls-6" d="M29.9,25.57l0-.37a3.1,3.1,0,0,0-3.07-2.69h0a3.1,3.1,0,0,0-2.19.91l-.33.33a3.1,3.1,0,0,1-1.84.89l-3.54.4"/><path class="cls-7" d="M18,31.5l3.83-1.86a1.09,1.09,0,0,0,.68-1.18l-.5-3Z"/><path class="cls-4" d="M17.7,31.5,1.41,29.73a1.1,1.1,0,0,1-.66-1.79l3.32-4.08a1,1,0,0,1,.83-.36l16.29,1.77a1.1,1.1,0,0,1,.66,1.79l-3.32,4.08A1,1,0,0,1,17.7,31.5Z"/><polygon points="7.23 24.71 6.27 24.61 5.66 25.44 6.62 25.54 7.23 24.71"/><polygon points="9.15 24.91 8.19 24.81 7.58 25.64 8.55 25.74 9.15 24.91"/><polygon points="3.23 28.75 4.2 28.84 4.8 28.02 3.84 27.92 3.23 28.75"/><polygon points="5.16 28.94 6.12 29.03 6.73 28.21 5.76 28.11 5.16 28.94"/><polygon points="11.08 25.11 10.12 25.01 9.51 25.84 10.47 25.93 11.08 25.11"/><polygon points="13 25.31 12.04 25.21 11.43 26.03 12.39 26.13 13 25.31"/><polygon points="14.92 25.51 13.96 25.41 13.36 26.23 14.32 26.32 14.92 25.51"/><polygon points="16.85 25.71 15.88 25.61 15.28 26.42 16.24 26.52 16.85 25.71"/><polygon points="17.81 25.8 17.2 26.61 18.16 26.71 18.77 25.9 17.81 25.8"/><polygon points="12.85 29.68 13.81 29.77 14.42 28.96 13.46 28.87 12.85 29.68"/><polygon points="14.77 29.86 15.73 29.95 16.34 29.14 15.38 29.05 14.77 29.86"/><polygon points="6.98 26.46 6.02 26.36 5.41 27.19 6.37 27.29 6.98 26.46"/><polygon points="8.9 26.66 7.94 26.56 7.33 27.38 8.29 27.48 8.9 26.66"/><polygon points="9.26 27.58 10.22 27.67 10.82 26.85 9.86 26.75 9.26 27.58"/><polygon points="11.18 27.77 12.14 27.86 12.75 27.05 11.79 26.95 11.18 27.77"/><polygon points="7.08 29.13 11.89 29.59 12.5 28.77 7.69 28.3 7.08 29.13"/><polygon points="14.67 27.24 13.71 27.14 13.1 27.96 14.06 28.05 14.67 27.24"/><polygon points="16.59 27.43 15.63 27.33 15.03 28.14 15.99 28.24 16.59 27.43"/></g></g></svg>