<svg xmlns="http://www.w3.org/2000/svg" viewBox="0 0 32 32"><defs><style>.cls-1{fill:#f0f;opacity:0;}.cls-2{fill:#84bbd7;}.cls-2,.cls-3,.cls-5{stroke:#000;stroke-miterlimit:10;}.cls-3{fill:#fff;}.cls-4{fill:#d1e2ed;}.cls-5{fill:none;}</style></defs><title>phone</title><g id="Layer_2" data-name="Layer 2"><g id="Layer_1-2" data-name="Layer 1"><rect class="cls-1" width="32" height="32"/><path class="cls-2" d="M31,13l-.37-.81a6.12,6.12,0,0,0-.44-.93,3.09,3.09,0,0,0-1.26-1.07L19,5.63a3.17,3.17,0,0,0-4.08,1.3l-7.32,13a3,3,0,0,0-.06,2.85l-.1.08a4.12,4.12,0,0,0,2.54,3.79l8.2,3.46a5.29,5.29,0,0,0,6.37-1.8l6.62-9.41a2,2,0,0,0,.37-1.17V15.53A6.1,6.1,0,0,0,31,13Z"/><path class="cls-3" d="M9.14,24.28l9.9,3.9a3.17,3.17,0,0,0,3.88-1.3l7.36-12.31a3.07,3.07,0,0,0-1.38-4.37L19,5.63a3.17,3.17,0,0,0-4.08,1.3l-7.32,13A3.07,3.07,0,0,0,9.14,24.28Z"/><ellipse cx="17.06" cy="16.91" rx="0.85" ry="1" transform="translate(-5.62 24.83) rotate(-64)"/><ellipse cx="19.74" cy="18.22" rx="0.85" ry="1" transform="translate(-5.28 27.98) rotate(-64)"/><ellipse cx="22.43" cy="19.53" rx="0.85" ry="1" transform="translate(-4.95 31.13) rotate(-64)"/><ellipse cx="15.95" cy="19.19" rx="0.85" ry="1" transform="translate(-8.29 25.11) rotate(-64)"/><ellipse cx="18.63" cy="20.5" rx="0.85" ry="1" transform="translate(-7.96 28.26) rotate(-64)"/><ellipse cx="21.32" cy="21.81" rx="0.85" ry="1" transform="translate(-7.63 31.41) rotate(-64)"/><ellipse cx="14.84" cy="21.47" rx="0.85" ry="1" transform="translate(-10.96 25.39) rotate(-64)"/><ellipse cx="17.52" cy="22.78" rx="0.85" ry="1" transform="translate(-10.63 28.54) rotate(-64)"/><ellipse cx="20.2" cy="24.09" rx="0.85" ry="1" transform="translate(-10.3 31.69) rotate(-64)"/><path class="cls-4" d="M24.15,16.13,19.44,14a1.78,1.78,0,0,1-1.07-2.27l.73-1.64a1.78,1.78,0,0,1,2.4-.73l4.71,2.1a1.78,1.78,0,0,1,1.07,2.27l-.73,1.64A1.78,1.78,0,0,1,24.15,16.13Z"/><path class="cls-5" d="M24.15,16.13,19.44,14a1.78,1.78,0,0,1-1.07-2.27l.73-1.64a1.78,1.78,0,0,1,2.4-.73l4.71,2.1a1.78,1.78,0,0,1,1.07,2.27l-.73,1.64A1.78,1.78,0,0,1,24.15,16.13Z"/><path class="cls-3" d="M18,6.63a4.17,4.17,0,0,1-.47,1.92l-.33.53a4,4,0,0,1-3.27,1.68h-.15l0,.07-2.57,4.51-.1.18a4.13,4.13,0,0,1,.23,4.63,4,4,0,0,1-3.47,2,4.11,4.11,0,0,1-3.51-6.18s4.58-9,6.4-11.82a3.79,3.79,0,0,1,3.2-1.6A4.09,4.09,0,0,1,18,6.63Z"/><path d="M17.48,8.54l-.33.53a4,4,0,0,1-3.27,1.68h-.15l0,.07-.35-.42,2.21-3.81a.64.64,0,0,1,1.14.08Z"/><path d="M11.85,18a4.15,4.15,0,0,1-.6,2.16l-1.49.12a1.14,1.14,0,0,1-1.06-1.71l1.85-3.26.56,0-.1.18A4.12,4.12,0,0,1,11.85,18Z"/><path class="cls-5" d="M4.57,20S.5,22,.5,24.11c0,4.13,7.56,1,7.56,1"/></g></g></svg>