<?xml version="1.0" encoding="utf-8"?>
<!-- Generator: Adobe Illustrator 22.0.1, SVG Export Plug-In . SVG Version: 6.00 Build 0)  -->
<svg version="1.1" id="Layer_1" xmlns="http://www.w3.org/2000/svg" xmlns:xlink="http://www.w3.org/1999/xlink" x="0px" y="0px"
	 viewBox="0 0 142 142" style="enable-background:new 0 0 142 142;" xml:space="preserve">
<style type="text/css">
	.st0{fill:#BFD8E8;}
	.st1{fill:#FFFFFF;}
	.st2{fill:none;stroke:#000000;stroke-width:3.4;stroke-miterlimit:10;}
	.st3{fill:none;stroke:#000000;stroke-width:2;stroke-linecap:round;stroke-miterlimit:10;}
</style>
<path d="M85.5,117.6c0,0,21.7,0.3,33.1-5.8c11.3-6.1,22.2-10.1,22.2-16.1s-13.4-7.4-13.4-7.4L85.5,117.6z"/>
<g>
	<g>
		<path class="st0" d="M91.8,114.3c0.8-1.9,1.3-4,1.3-6.2L93,85c0-8.3-6.3-15.9-14-17l-23.9-3.4l-3.2-0.5l-19.8-2.8l30.5-12.9l0,0
			l0.6-0.2c0.9-0.3,1.9-0.5,3-0.5c0.4,0,0.9,0,1.4,0.1l50.6,7.1c6,0.8,11,6.9,11,13.5v23.1c0,4.2-2.1,7.8-5.5,9.3l-0.5,0.2
			L91.8,114.3z"/>
		<path d="M66.2,49.6L66.2,49.6c0.4,0,0.7,0,1.1,0.1l50.6,7.1c5.1,0.7,9.4,6.1,9.4,11.7v23.1c0,3.5-1.7,6.4-4.4,7.6l-0.5,0.2
			l-29.9,11.9l-4.2,5.5l35.5-14.1l0.5-0.2c3.9-1.7,6.6-5.8,6.6-11V68.4c0-7.4-5.6-14.3-12.5-15.2l-50.6-7.1C67.3,46,66.7,46,66.2,46
			l0,0c-1.3,0-2.5,0.2-3.6,0.6L62,46.9l0,0L26.4,61c1.2-0.4,2.4-0.7,3.8-0.7c0.5,0,1.1,0,1.6,0.1l3.3,0.9l28.1-11.1l0.2-0.1l0.5-0.2
			C64.6,49.7,65.4,49.6,66.2,49.6"/>
	</g>
	<g>
		<g>
			<path class="st1" d="M82.4,71c5.1,0.7,9.3,5.8,9.3,11.3v23.1c0,5.5-4.1,9.4-9.3,8.7L31.9,107c-5.1-0.7-9.3-5.8-9.3-11.3V72.6
				c0-5.5,4.2-9.4,9.3-8.7L82.4,71z"/>
		</g>
		<g>
			<path d="M82.5,75.6c-2.7-0.4-4.9,1.7-4.9,4.6c0,2.9,2.2,5.6,4.9,6c2.7,0.4,4.9-1.7,4.9-4.6C87.4,78.7,85.2,76,82.5,75.6z
				 M82.5,82.8c-0.9-0.1-1.7-1.1-1.7-2.1s0.7-1.7,1.7-1.6c0.9,0.1,1.7,1.1,1.7,2.1S83.5,82.9,82.5,82.8z"/>
		</g>
		<g>
			<path d="M82.4,67.5c6.9,1,12.5,7.8,12.5,15.2v23.1c0,7.4-5.6,12.7-12.5,11.7l-50.6-7.1c-6.9-1-12.5-7.8-12.5-15.2V72.1
				c0-7.4,5.6-12.7,12.5-11.7L82.4,67.5z M22.6,95.7c0,5.5,4.2,10.6,9.3,11.3l50.6,7.1c5.1,0.7,9.3-3.2,9.3-8.7V82.3
				c0-5.5-4.2-10.6-9.3-11.3l-50.6-7.1c-5.1-0.7-9.3,3.2-9.3,8.7L22.6,95.7L22.6,95.7z"/>
		</g>
	</g>
	<g>
		<path class="st1" d="M13.3,110.4c-0.4-0.1-0.5-0.3-0.5-0.6c0-0.2,0-0.5,0.4-0.7l23.5-9.2L80,106c0.6,0.1,0.7,0.5,0.7,0.8
			c0,0.2,0,0.7-0.5,0.9l-22.7,8.9L13.3,110.4z"/>
		<path d="M36.9,101.8l39.4,5.5l-19,7.5l-39.4-5.5L36.9,101.8 M36.5,98.1l-23.9,9.4c-2.3,0.9-1.9,4.3,0.6,4.7l44.6,6.3l23.1-9.1
			c2.5-1,2.1-4.7-0.6-5.1L36.5,98.1L36.5,98.1z"/>
	</g>
	<g>
		<polygon class="st1" points="61.4,53.6 75.6,25.5 122.2,31.9 108,60.1 		"/>
		<path d="M76.6,27.4l42.9,5.9L107,58.1l-42.9-5.9L76.6,27.4 M74.6,23.5L58.7,55.1l50.4,7L125,30.6L74.6,23.5L74.6,23.5z"/>
	</g>
	<line class="st2" x1="91.8" y1="75.3" x2="127.9" y2="61.4"/>
	<line class="st3" x1="36.3" y1="105" x2="57.4" y2="108"/>
	<line class="st3" x1="30.5" y1="107.6" x2="41" y2="109"/>
</g>
</svg>
