<svg xmlns="http://www.w3.org/2000/svg" viewBox="0 0 32 32"><defs><style>.cls-1{opacity:0;}.cls-2{fill:#f0f;}.cls-3{fill:#d1e2ed;}.cls-4,.cls-5,.cls-6{fill:none;stroke-linecap:round;stroke-linejoin:round;}.cls-4{stroke:#000;stroke-width:4px;}.cls-5{stroke:#84bbd7;}.cls-5,.cls-6{stroke-width:2px;}.cls-6{stroke:#fff;}</style></defs><title>router</title><g id="Layer_2" data-name="Layer 2"><g id="Layer_1-2" data-name="Layer 1"><g class="cls-1"><rect class="cls-2" width="32" height="32"/></g><path class="cls-3" d="M16,31.5A15.5,15.5,0,1,1,31.5,16,15.52,15.52,0,0,1,16,31.5Z"/><path d="M16,1A15,15,0,1,1,1,16,15,15,0,0,1,16,1m0-1h0A16,16,0,0,0,0,16H0A16,16,0,0,0,16,32h0A16,16,0,0,0,32,16h0A16,16,0,0,0,16,0Z"/><line class="cls-4" x1="16" y1="4" x2="16" y2="12"/><polyline class="cls-4" points="13 6 16 4 19 6"/><line class="cls-5" x1="16" y1="4" x2="16" y2="12"/><polyline class="cls-5" points="13 6 16 4 19 6"/><line class="cls-4" x1="16" y1="28" x2="16" y2="20"/><polyline class="cls-4" points="19 26 16 28 13 26"/><line class="cls-5" x1="16" y1="28" x2="16" y2="20"/><polyline class="cls-5" points="19 26 16 28 13 26"/><line class="cls-4" x1="20" y1="16" x2="28" y2="16"/><polyline class="cls-4" points="22 19 20 16 22 13"/><line class="cls-6" x1="20" y1="16" x2="28" y2="16"/><polyline class="cls-6" points="22 19 20 16 22 13"/><line class="cls-4" x1="12" y1="16" x2="4" y2="16"/><polyline class="cls-4" points="10 13 12 16 10 19"/><line class="cls-6" x1="12" y1="16" x2="4" y2="16"/><polyline class="cls-6" points="10 13 12 16 10 19"/></g></g></svg>