<?xml version="1.0" encoding="utf-8"?>
<!-- Generator: Adobe Illustrator 22.0.1, SVG Export Plug-In . SVG Version: 6.00 Build 0)  -->
<svg version="1.1" id="Layer_1" xmlns="http://www.w3.org/2000/svg" xmlns:xlink="http://www.w3.org/1999/xlink" x="0px" y="0px"
	 viewBox="0 0 142 142" style="enable-background:new 0 0 142 142;" xml:space="preserve">
<style type="text/css">
	.st0{fill:#FFFFFF;}
	.st1{fill:#BFD8E8;}
	.st2{opacity:0.3;}
</style>
<g>
	<g>
		<path d="M65.7,123.3c0,0,25.6,0.3,39-6.8c13.4-7.1,26.3-11.8,26.3-18.8s-15.9-8.8-15.9-8.8L65.7,123.3z"/>
	</g>
	<g>
		<path class="st0" d="M64.4,120.4c-0.3,0-0.6,0-0.9-0.1L20,114.1c-3.6-0.5-6.6-4.1-6.6-7.9V92.4c-0.1-1.8,0.6-3.5,1.7-4.7
			c1.1-1.1,2.6-1.7,4.1-1.7c0.3,0,0.6,0,0.9,0.1l43.5,6.2c3.6,0.5,6.6,4.1,6.6,7.9v13.8c0.1,1.8-0.6,3.5-1.7,4.7
			C67.4,119.7,66,120.4,64.4,120.4z"/>
	</g>
	<g>
		<g>
			<path class="st1" d="M113,79l-0.4-1.1L70.7,95.9l0.3,0.9c0.5,1.4,0.7,2.6,0.7,3.8v14c0,0.5,0,1-0.1,1.4l-0.4,2l39-16.7l0.5-0.2
				c1.8-1,2.9-3,2.7-5.2V82C113.5,80.9,113.3,80,113,79z"/>
		</g>
		<g>
			<path class="st1" d="M110.1,75.1c-1.2-0.9-2.3-1.4-3.3-1.5l-43.5-6.2h-0.7c-0.6,0-1.1,0.1-1.6,0.3l-0.4,0.1l-0.2,0.1L21.6,84.5
				l41.8,5.8c2,0.3,4,1.4,5.6,3.2l0.5,0.6l42.1-17.9L110.1,75.1z"/>
		</g>
	</g>
	<g class="st2">
		<path d="M24.3,104.1c-0.8-0.8-1.3-1.9-1.3-3.1c0-1.9,1.5-3.2,3.2-3c0.7,0.1,1.4,0.5,2,1.1C24.2,99.5,24.1,102.7,24.3,104.1z"/>
	</g>
	<g class="st2">
		<path d="M41.7,106.6c-0.8-0.8-1.3-1.9-1.3-3.1c0-1.9,1.5-3.2,3.2-3c0.7,0.1,1.4,0.5,2,1.1C41.7,102,41.5,105.2,41.7,106.6z"/>
	</g>
	<g>
		<path d="M107.5,70.7L67.6,65l-1.5-10.5c2.6-0.5,4.6-2.7,4.6-5.5c0-3.1-2.5-5.6-5.6-5.6c-3.1,0-5.6,2.5-5.6,5.6c0,2.7,2,5,4.5,5.5
			l-1.4,9.9c-1.1,0-2,0.2-3,0.5h-0.1h-0.1L16,83.8c-2.9,1.3-5,4.3-5,8.1v14c0,5.5,4.1,10.5,9.2,11.2l43.5,6.2c1.6,0.2,3.1,0,4.4-0.6
			l43.5-18.6h0.1h0.1c2.9-1.3,4.9-4.3,4.9-8.1l0.1-14C116.7,76.4,112.6,71.5,107.5,70.7z M69.4,114c0.1,3.4-2.4,5.7-5.5,5.3
			l-43.5-6.2c-3-0.4-5.6-3.5-5.6-6.8V92.4c-0.1-3.4,2.4-5.7,5.5-5.3l43.5,6.2c3,0.4,5.6,3.5,5.6,6.8V114z M63.8,89.3L25.8,84
			l35.1-15l0.2-0.1l0.3-0.1c0.2-0.1,0.4-0.1,0.6-0.1l-1,6.9c-2.5,0.4-4.3,1.5-4.4,2.8c-0.2,2,3.4,4,8.1,4.4c4.6,0.4,8.5-0.9,8.7-3
			c0.1-1.5-1.7-2.9-4.4-3.7l-1-6.9l38.7,5.5c1,0.1,1.9,0.6,2.8,1.3L70,92.9C68.4,91,66.1,89.6,63.8,89.3z M112.6,95.9
			c0.1,1.8-0.8,3.5-2.2,4.2l-0.4,0.2l-37.1,15.9c0.1-0.5,0.1-1.1,0.1-1.6v-14c0-1.4-0.3-2.8-0.8-4.1l39.9-17.1
			c0.3,0.9,0.4,1.6,0.4,2.6V95.9z"/>
		<path d="M43.5,96.5c-3.8-0.5-7,2.3-7,6.6c0,4.1,3.2,8,7,8.5c3.8,0.5,7-2.3,7-6.6C50.4,100.7,47.4,97,43.5,96.5z M43.5,107.4
			c-1.9-0.2-3.2-2.1-3.2-3.9c0-1.9,1.5-3.2,3.2-3c1.7,0.2,3.2,2.1,3.2,3.9C46.7,106.3,45.2,107.6,43.5,107.4z"/>
		<path d="M59.2,101.8c-2.3-0.3-4.3,1.5-4.3,4s1.8,5,4.3,5.3c2.3,0.3,4.3-1.5,4.3-4C63.5,104.5,61.5,102,59.2,101.8z"/>
		<path d="M26.1,94c-3.8-0.5-7,2.3-7,6.6c0,4.1,3.2,8,7,8.5c3.8,0.5,7-2.3,7-6.6C33,98.3,30,94.6,26.1,94z M26.1,105
			c-1.9-0.2-3.2-2.1-3.2-3.9c0-1.9,1.5-3.2,3.2-3c1.7,0.2,3.2,2.1,3.2,3.9C29.3,103.8,27.8,105.1,26.1,105z"/>
		<path d="M40.5,34.6c0.3,0.2,0.7,0.3,1,0.3c0.6,0,1.2-0.3,1.5-0.8c5-7.4,13.3-11.7,22.1-11.7c8.8,0,17.1,4.4,22.1,11.7
			c0.6,0.8,1.7,1.1,2.6,0.5c0.8-0.6,1.1-1.7,0.5-2.6c-5.7-8.3-15.1-13.3-25.1-13.3c-10.1,0-19.5,5-25.1,13.4
			C39.5,32.9,39.7,34,40.5,34.6z"/>
		<path d="M80.8,38.4c0.6,0.8,1.7,1.1,2.6,0.5c0.8-0.6,1.1-1.7,0.5-2.6c-4.2-6.2-11.2-9.9-18.7-9.9c-7.5,0-14.4,3.7-18.7,9.9
			c-0.6,0.8-0.4,2,0.5,2.6c0.3,0.2,0.7,0.3,1,0.3c0.6,0,1.2-0.3,1.5-0.8c3.5-5.2,9.4-8.3,15.6-8.3C71.4,30.2,77.2,33.3,80.8,38.4z"
			/>
		<path d="M65.2,34.3c-4.9,0-9.4,2.4-12.2,6.5c-0.6,0.8-0.4,2,0.5,2.6c0.3,0.2,0.7,0.3,1,0.3c0.6,0,1.2-0.3,1.5-0.8
			c2.1-3,5.5-4.9,9.2-4.9c3.7,0,7.1,1.8,9.1,4.8c0.6,0.8,1.7,1.1,2.6,0.5c0.8-0.6,1.1-1.7,0.5-2.6C74.6,36.7,70,34.3,65.2,34.3z"/>
	</g>
</g>
</svg>
