<svg xmlns="http://www.w3.org/2000/svg" viewBox="0 0 32 32"><defs><style>.cls-1{opacity:0;}.cls-2{fill:#f0f;}.cls-3{fill:#d1e2ed;}.cls-4{fill:none;stroke:#000;stroke-miterlimit:10;}.cls-5{fill:#fff;}</style></defs><title>server</title><g id="Layer_2" data-name="Layer 2"><g id="Layer_1-2" data-name="Layer 1"><g class="cls-1"><rect class="cls-2" width="32" height="32"/></g><path class="cls-3" d="M14.08,31.5a3.51,3.51,0,0,1-.75-.08l-10-2.16A3.47,3.47,0,0,1,.6,25.86L.5,8.09A3.5,3.5,0,0,1,3.3,4.65L17,.64A3.36,3.36,0,0,1,17.9.5h0a3.55,3.55,0,0,1,.76.08l10,2.16A3.47,3.47,0,0,1,31.4,6.14l.1,17.77a3.5,3.5,0,0,1-2.8,3.44L15,31.36a3.36,3.36,0,0,1-.89.14Z"/><path d="M17.92,0V1a3,3,0,0,1,.64.07l10,2.16A3,3,0,0,1,30.9,6.14L31,23.91a3,3,0,0,1-2.4,3h-.08l-13.65,4a2.91,2.91,0,0,1-.78.12,3,3,0,0,1-.64-.07l-10-2.16A3,3,0,0,1,1.1,25.86L1,8.09a3,3,0,0,1,2.4-3h.08l13.65-4A2.9,2.9,0,0,1,17.9,1l0-1m0,0h0a3.9,3.9,0,0,0-1,.16L3.2,4.16A4,4,0,0,0,0,8.09L.1,25.87a4,4,0,0,0,3.15,3.88l10,2.16a4,4,0,0,0,.85.09h0a3.9,3.9,0,0,0,1-.16l13.66-4A4,4,0,0,0,32,23.91L31.9,6.13a4,4,0,0,0-3.15-3.88L18.77.09A4,4,0,0,0,17.92,0Z"/><polyline class="cls-4" points="17.03 8.58 21.71 7.21 31.07 4.48"/><path class="cls-5" d="M14.08,31.5a3.51,3.51,0,0,1-.75-.08l-10-2.16A3.47,3.47,0,0,1,.6,25.86L.5,8.09A3.49,3.49,0,0,1,4,4.58a3.51,3.51,0,0,1,.75.08l10,2.16a3.47,3.47,0,0,1,2.75,3.39L17.56,28a3.49,3.49,0,0,1-3.48,3.51Z"/><path d="M4,5.08H4a3,3,0,0,1,.64.07l10,2.16A3,3,0,0,1,17,10.22L17.06,28a3,3,0,0,1-3,3,3,3,0,0,1-.64-.07l-10-2.16A3,3,0,0,1,1.1,25.86L1,8.09a3,3,0,0,1,3-3m0-1a4,4,0,0,0-4,4L.1,25.87a4,4,0,0,0,3.15,3.88l10,2.16A4,4,0,0,0,18.06,28L18,10.21a4,4,0,0,0-3.15-3.88l-10-2.16A4,4,0,0,0,4,4.08Z"/><polygon class="cls-5" points="3.58 24.48 3.57 21.65 14.55 24.05 14.56 26.88 3.58 24.48"/><path d="M4.07,22.28l10,2.18v1.8l-10-2.18v-1.8M3.07,21l0,3.85,12,2.61,0-3.85L3.07,21Z"/><polygon class="cls-5" points="3.57 21.66 3.55 18.84 14.53 21.23 14.55 24.06 3.57 21.66"/><path d="M4.06,19.46l10,2.18v1.8l-10-2.18v-1.8M3,18.21l0,3.85,12,2.61,0-3.85L3,18.21Z"/><polygon class="cls-5" points="3.55 18.84 3.54 16.02 14.52 18.41 14.53 21.24 3.55 18.84"/><path d="M4,16.64l10,2.18v1.8l-10-2.18v-1.8M3,15.4l0,3.85,12,2.61L15,18,3,15.4Z"/><polygon class="cls-5" points="3.54 16.02 3.52 13.2 14.5 15.59 14.52 18.42 3.54 16.02"/><path d="M4,13.82,14,16v1.8L4,15.62v-1.8M3,12.58l0,3.85L15,19l0-3.85L3,12.58Z"/><polygon class="cls-5" points="3.5 10.21 3.49 7.42 6.48 8.07 6.5 10.86 3.5 10.21"/><path d="M4,8l2,.43v1.77L4,9.81V8M3,6.8l0,3.82,4,.87L7,7.67,3,6.8Z"/></g></g></svg>