<svg xmlns="http://www.w3.org/2000/svg" viewBox="0 0 32 32"><defs><style>.cls-1{opacity:0;}.cls-2{fill:#f0f;}.cls-3{fill:#d1e2ed;}.cls-4,.cls-5{fill:none;stroke-linecap:round;stroke-linejoin:round;}.cls-4{stroke:#000;stroke-width:4px;}.cls-5{stroke:#84bbd7;stroke-width:2px;}.cls-6{fill:#84bbd7;}</style></defs><title>unknown</title><g id="Layer_2" data-name="Layer 2"><g id="Layer_1-2" data-name="Layer 1"><g class="cls-1"><rect class="cls-2" width="32" height="32"/></g><path class="cls-3" d="M4.74,31.5A4.23,4.23,0,0,1,1,25.38L12.22,2.84a4.23,4.23,0,0,1,7.57,0L31,25.38a4.23,4.23,0,0,1-3.78,6.12Z"/><path d="M16,1a3.66,3.66,0,0,1,3.34,2.06L30.6,25.6A3.73,3.73,0,0,1,27.26,31H4.74A3.73,3.73,0,0,1,1.4,25.6L12.66,3.06A3.66,3.66,0,0,1,16,1m0-1a4.67,4.67,0,0,0-4.23,2.62L.51,25.15A4.73,4.73,0,0,0,4.74,32H27.26a4.73,4.73,0,0,0,4.23-6.85L20.23,2.62A4.67,4.67,0,0,0,16,0Z"/><path class="cls-4" d="M16,22v0a6.25,6.25,0,0,1,2.5-4.84A4,4,0,1,0,12,14"/><path class="cls-5" d="M16,22v0a6.25,6.25,0,0,1,2.5-4.84A4,4,0,1,0,12,14"/><circle cx="16" cy="27" r="2"/><circle class="cls-6" cx="16" cy="27" r="1"/></g></g></svg>