<?xml version="1.0" encoding="utf-8"?>
<!-- Generator: Adobe Illustrator 22.0.1, SVG Export Plug-In . SVG Version: 6.00 Build 0)  -->
<svg version="1.1" id="Layer_1" xmlns="http://www.w3.org/2000/svg" xmlns:xlink="http://www.w3.org/1999/xlink" x="0px" y="0px"
	 viewBox="0 0 142 142" style="enable-background:new 0 0 142 142;" xml:space="preserve">
<style type="text/css">
	.st0{fill:#FFFFFF;}
	.st1{fill:#BFD8E8;}
</style>
<g>
	<path d="M74.5,130.8c0,0,21.7,0.3,33.1-5.8c11.3-6.1,22.2-10.1,22.2-16.1s-13.4-7.4-13.4-7.4L74.5,130.8z"/>
	<g>
		<path class="st0" d="M72.6,129.1c-0.3,0-0.7,0-1-0.1l-36.8-5.2c-4.1-0.6-7.5-4.6-7.5-9l-0.1-70.9c0-2.1,0.7-4,2.1-5.4
			c1.2-1.2,2.9-1.9,4.7-1.9c0.2,0,0.3,0,0.5,0l1,0.1l0.1,35.1l0.7,0.1L36,33c0-1.7,0.6-3.3,1.7-4.4c1-1,2.4-1.6,3.9-1.6
			c0.3,0,0.5,0,0.8,0.1l21.7,3.1c3.4,0.5,6.1,3.8,6.1,7.4l0.1,39.2l0.7,0.1L71,41.7l1.2,0.3c3.9,0.8,6.9,4.8,7,9l0.1,70.9
			c0,2.1-0.7,4-2.1,5.3C76,128.4,74.3,129.1,72.6,129.1z"/>
		<path class="st1" d="M79.2,125c0.3-0.9,0.4-1.8,0.4-2.8l-0.1-70.9c0-4.9-3.5-9.4-8-10.3l-0.8-0.2l0-2.9c0-4.3-3.2-8.2-7.1-8.7
			l-21-2.9l31.8-12.7l0.6-0.2c0.5-0.2,1-0.2,1.4-0.2c0.3,0,0.5,0,0.8,0.1l21.7,3.1c3.4,0.5,6.2,3.9,6.2,7.7l0,2.1v1.7l-17.8,7.2
			l1.2,0.6L107,28l0.3,0.1c3.8,1.1,6.6,5,6.6,9.1l0.1,70.9c0,2.5-1.1,4.8-3,5.9l-0.1,0l-1.8,0.7L78.5,127L79.2,125z"/>
		<g>
			<path d="M57,100c1.6,1.5,2.4,3.6,2.4,5.7c0,3.7-2.8,6.3-6.2,5.8c-3.4-0.5-6.2-3.9-6.2-7.6c0-2.1,0.9-3.9,2.4-5l-1.7-2.6
				c-2.2,1.5-3.5,4.1-3.5,7.2c0,5.3,4,10.2,8.9,10.9c4.9,0.7,8.9-3.1,8.9-8.4c0-3-1.3-6-3.5-8.1L57,100z"/>
			<polygon points="53.3,103.8 54.7,104 54.6,98.5 54.6,93.3 51.9,93 51.9,98.1 51.9,103.6 			"/>
			<path d="M66.7,53.7l0-4.3l0-2.9l0-7.2l-26.6-3.7l0,10.2l0,7.2l0,7.2l26.6,3.7l0-7.2L66.7,53.7z M42.8,38.8l21.1,3l0,4.3l-21.1-3
				L42.8,38.8z M42.8,46L64,49l0,4.3l-21.1-3L42.8,46z M42.8,57.6l0-4.3l21.1,3l0,4.3L42.8,57.6z"/>
			<path d="M116.4,37.2c0-3.9-2.1-7.6-5.1-9.7c-1.1-0.8-2.4-1.3-3.8-1.6v-0.2l0-1.9c0-4.7-3.6-9.1-8-9.7l-21.7-3.1
				c-0.3-0.1-0.7-0.1-1-0.1c-0.7,0-1.4,0.1-2.1,0.3l-0.2,0.1L74,11.6L40.1,25.1c-3.3,0.6-5.8,3.5-5.8,7.5l0,2.1
				c-4.9-0.4-8.8,3.4-8.8,8.8l0.1,70.9c0,5.5,4.2,10.6,9.3,11.4l36.8,5.2c1.7,0.2,3.2,0,4.6-0.7l34.1-13.5l1.9-0.8l0,0
				c2.5-1.4,4.2-4.3,4.2-7.8L116.4,37.2z M71.7,128L35,122.8c-3.6-0.5-6.6-4.1-6.6-8l-0.1-70.9c0-3.8,2.7-6.5,6.1-6.2l0.1,35.1
				l1.4,0.2l1.4,0.2L37,33c0-3.1,2.3-5.3,5.3-4.9L64,31.1c2.9,0.4,5.3,3.3,5.3,6.4l0.1,40.1l1.4,0.2l1.4,0.2L72,42.9
				c3.4,0.7,6.1,4.2,6.1,8l0.1,70.9C78.3,125.7,75.3,128.5,71.7,128z M110.9,113.2l-1.7,0.7l-28.7,11.4c0.3-1,0.5-2,0.5-3.1
				l-0.1-70.9c0-5.4-4-10.3-8.9-11.3l0-2.1c0-4.7-3.6-9.1-8-9.7l-17.2-2.4l28.2-11.3l0.4-0.2l0.2-0.1c0.3-0.1,0.7-0.2,1.1-0.2
				c0.2,0,0.4,0,0.6,0l21.7,3.1c2.9,0.4,5.3,3.5,5.4,6.7l0,2.1v1l-19.1,7.7l3.5,1.9l18.7-7.5c3.3,0.9,5.9,4.5,5.9,8.1l0.1,70.9
				C113.5,110.3,112.5,112.2,110.9,113.2z"/>
		</g>
	</g>
</g>
</svg>
