<?xml version="1.0" encoding="utf-8"?>
<!-- Generator: Adobe Illustrator 22.0.1, SVG Export Plug-In . SVG Version: 6.00 Build 0)  -->
<svg version="1.1" id="Layer_1" xmlns="http://www.w3.org/2000/svg" xmlns:xlink="http://www.w3.org/1999/xlink" x="0px" y="0px"
	 viewBox="0 0 142 142" style="enable-background:new 0 0 142 142;" xml:space="preserve">
<style type="text/css">
	.st0{fill:#D1E2ED;}
	.st1{fill:#9CC6DD;}
	.st2{fill:#010101;}
	.st3{fill:#FFFFFF;stroke:#010101;stroke-width:2.056;stroke-miterlimit:10;}
</style>
<polygon points="131.5,9.8 17.3,9.8 11.5,20.7 11.5,131.3 123.9,131.3 131.5,124 "/>
<rect x="20.6" y="13.1" class="st0" width="107.5" height="107.5"/>
<g>
	<path class="st1" d="M50.1,111.2c0,0,59.5-26.4,61.5-25.5c2,0.8-13.4,25.5-13.4,25.5L80,105.6L52,112.2L50.1,111.2z"/>
	<g>
		<path class="st2" d="M74.6,54.3c-0.2,0-0.2,0-0.3,0c-0.7,0.2-1.3,0.5-1.5,1l-22,54.4c-0.5,0.7-0.2,1.7,0.5,2.1
			c0.7,0.5,1.7,0.5,2.4,0l20.9-12.9l20.9,12.9c0.7,0.5,1.8,0.5,2.4,0c0.7-0.5,1-1.4,0.5-2.1l-22-54.4c-0.3-0.5-0.8-1-1.5-1
			C74.8,54.3,74.8,54.3,74.6,54.3z M74.6,59.2l11.3,28.6L74.6,95L64,87.6L74.6,59.2z M62.1,90.7l8.8,6l-15.3,9.8L62.1,90.7z
			 M87.4,90.9l6,15.6l-15.3-9.7L87.4,90.9z"/>
		<path class="st1" d="M74.5,32.9l-0.3,17.5l-18.3,11l-6.3-8.5c0,0-2.5-13.9-2.6-14.2C46.7,38.3,55.7,22,55.7,22L74.5,32.9z"/>
		<path class="st1" d="M74.5,32.9l0.3,17.5l18.3,11l6.3-8.5c0,0,2.5-13.9,2.6-14.2c0.2-0.5-8.8-16.7-8.8-16.7L74.5,32.9z"/>
		<path class="st2" d="M94.2,21.6c-0.7,0-1.1,0.3-1.4,1c-0.3,0.7-0.2,1.5,0.5,2.1c4.1,4.5,6.6,10.5,6.6,17s-2.4,12.6-6.4,17
			c-0.8,0.7-0.7,2-0.2,2.6c0.8,0.8,2,0.5,2.6-0.5c4.6-5.2,7.6-11.9,7.6-19.3s-2.9-14.2-7.6-19.2C95.5,21.9,94.9,21.6,94.2,21.6z"/>
		<path class="st2" d="M85.3,26.6c-0.8,0.2-1.4,0.5-1.5,1.3c-0.3,0.7,0.2,1.5,0.7,2.1c3.6,3.1,5.4,7,5.4,11.6s-2.1,9-5.4,11.6
			c-1.1,1.1-1.4,2.3-0.5,2.9c0.7,0.7,2,0.7,2.8-0.2c4.1-3.5,6.7-8.7,6.7-14.4S90.7,30.6,86.7,27C86.4,26.8,85.8,26.5,85.3,26.6z"/>
		<path class="st2" d="M52.9,22.3c-4.8,5.1-7.6,11.8-7.6,19.3s2.9,14.2,7.6,19.3c0.7,0.8,1.8,1.1,2.6,0.5c0.5-0.5,0.7-1.8-0.2-2.6
			c-4.1-4.5-6.4-10.6-6.4-17.1s2.5-12.5,6.6-17c0.5-0.5,0.7-1.4,0.5-2.1c-0.3-0.7-0.8-1-1.5-1C53.9,21.6,53.2,21.9,52.9,22.3z"/>
		<path class="st2" d="M62,27c-4.1,3.5-6.7,8.7-6.7,14.6S57.9,52.5,62,56c0.7,0.8,2,1,2.8,0.2c0.8-0.8,0.5-1.8-0.5-2.9
			c-3.2-2.8-5.4-7-5.4-11.6s1.7-8.5,5.4-11.6c0.5-0.5,1.1-1.4,0.8-2.1c-0.3-0.7-0.8-1.1-1.5-1.3C63,26.5,62.4,26.8,62,27z"/>
		<path class="st3" d="M74.5,33.7c-4.4,0-7.9,3.5-7.9,7.9s3.5,7.9,7.9,7.9c4.4,0,7.9-3.5,7.9-7.9C82.3,37.3,78.8,33.7,74.5,33.7z"/>
	</g>
</g>
</svg>
